<svg xmlns="http://www.w3.org/2000/svg" viewBox="0 0 32 32"><title>15-User-Security</title><g id="_15-User-Security" data-name="15-User-Security"><path d="M10,10V8A6,6,0,0,1,22,8v2a1,1,0,0,0,1,1v2h2V11a2,2,0,0,0-1-1.73V8A8,8,0,0,0,8,8V9.27A2,2,0,0,0,7,11v2a2,2,0,0,0,1,1.75,8.07,8.07,0,0,0,4,6.16v1.39L4.7,25c-.91.23-4.7,1.37-4.7,4v2a1,1,0,0,0,1,1H15V30H2V29c0-.78,1.92-1.7,3.24-2l.11,0,8-3A1,1,0,0,0,14,23V20.31a1,1,0,0,0-.57-.9A6,6,0,0,1,10,14a1,1,0,0,0-1-1V11A1,1,0,0,0,10,10Z"/><path d="M29,20H22V17h6a2,2,0,0,0-2-2H22a2,2,0,0,0-2,2v3H19a1,1,0,0,0-1,1v8a3,3,0,0,0,3,3h6a3,3,0,0,0,3-3V21A1,1,0,0,0,29,20Zm-1,9a1,1,0,0,1-1,1H21a1,1,0,0,1-1-1V22h8Z"/><path d="M25,28V26h1V24H22v2h1A2,2,0,0,0,25,28Z"/></g></svg>